<?xml version="1.0" encoding="UTF-8" standalone="no"?>
<svg id="main"
    xmlns="http://www.w3.org/2000/svg"
    xmlns:xlink="http://www.w3.org/1999/xlink" viewBox="0 0 811.3 506.79"
    height="480"
     width="640">
    <defs>
        <style>.cls-1,.cls-3{fill:none;}.cls-2{clip-path:url(#clip-path);}.cls-3{stroke:#2ea7e0;stroke-miterlimit:10;stroke-width:20px;}.cls-4{fill:#036eb8;}.cls-5,.cls-6{fill:#fff;}.cls-6{font-size:20px;font-family:Consolas;}.cls-7{font-size:12px;font-family:AdobeSongStd-Light-GBpc-EUC-H, Adobe Song Std;}</style>
        <clipPath id="clip-path" transform="translate(3.49 3.74)">
            <polygon id="circle-path" class="cls-1" points="-5.44 0 -5.44 171.32 130.99 169.69 108.33 129.76 141.25 97.21 192.03 118.04 192.03 0 -5.44 0"/>
        </clipPath>
    </defs>
    <g id="circle">
        <g class="cls-2">
            <path id="full-circle" class="cls-3" d="M159.68,80.49A74.24,74.24,0,1,1,85.44,6.26,74,74,0,0,1,159.68,80.49Z" transform="translate(3.49 3.74)"/>
        </g>
    </g>
    <g id="M">
        <path id="M-2" data-name="M" class="cls-4" d="M57.17,109.43q.88-14.81,2.46-30.16T64,49.8H73.7q3.8,8.34,7.19,15.62t7,15q3.41-7.58,6.75-14.93t7.13-15.7h9.84a195.46,195.46,0,0,1,4.16,28.44q1.14,15,2.27,31.19h-9.84q-.37-6.71-.69-15.27t-.7-17.77q-.37-9.21-1-17.81L92.5,86.37H83.17L69.29,58.58q-.14,8.51-.64,17.72t-.94,17.81q-.45,8.61-.7,15.32Z" transform="translate(3.49 3.74)"/>
    </g>
    <g id="MLinux_More" data-name="MLinux More">
        <path id="M-3" data-name="M" class="cls-5" d="M-3.49,188.79q.21-5.16.59-10.52t1-10.28H.44q.9,2.91,1.71,5.44l1.66,5.24,1.6-5.21L7.11,168H9.45a98.81,98.81,0,0,1,1,9.92q.27,5.24.54,10.88H8.64c-.06-1.56-.12-3.34-.17-5.33s-.1-4.06-.16-6.2-.14-4.21-.24-6.21l-3.15,9.69H2.69l-3.3-9.69q0,3-.15,6.18T-1,183.45c-.07,2-.13,3.78-.17,5.34Z" transform="translate(3.49 3.74)"/>
        <path id="L" class="cls-5" d="M15.42,188.79V168h2.34v18.79h9.85v2Z" transform="translate(3.49 3.74)"/>
        <path id="i" class="cls-5" d="M40.43,189.15a5.49,5.49,0,0,1-3-.69A3.63,3.63,0,0,1,36,186.4a12,12,0,0,1-.42-3.47v-7.68H30.94v-2h6.87v9.54a8.42,8.42,0,0,0,.32,2.63,2.11,2.11,0,0,0,.93,1.25,3.06,3.06,0,0,0,1.46.33,6.09,6.09,0,0,0,1.9-.27,7.83,7.83,0,0,0,1.16-.45l.33,2a3.12,3.12,0,0,1-.56.27,8,8,0,0,1-1.26.39A7.22,7.22,0,0,1,40.43,189.15ZM36,170.39a2,2,0,0,1-1.44-.59,2.3,2.3,0,0,1,0-3.1,2,2,0,0,1,1.44-.57,2,2,0,0,1,1.44.57,2.39,2.39,0,0,1,0,3.1A1.93,1.93,0,0,1,36,170.39Z" transform="translate(3.49 3.74)"/>
        <path id="n" class="cls-5" d="M48.26,188.79V173.66a21.34,21.34,0,0,1,3.06-.59,23.36,23.36,0,0,1,2.58-.16,8.07,8.07,0,0,1,3.37.64,4.57,4.57,0,0,1,2.17,2.11,8.43,8.43,0,0,1,.77,3.91v9.22H57.87v-8.74a7.39,7.39,0,0,0-.54-3.22,2.81,2.81,0,0,0-1.46-1.43,5.6,5.6,0,0,0-2.06-.36,16.35,16.35,0,0,0-3.21.33v13.42Z" transform="translate(3.49 3.74)"/>
        <path id="u" class="cls-5" d="M71.1,189.12a6.4,6.4,0,0,1-3.6-.9,5.06,5.06,0,0,1-2-2.51A10.44,10.44,0,0,1,65,182v-8.79h2.34v8.13c0,2.07.32,3.52,1,4.36A3.67,3.67,0,0,0,71.37,187a16.49,16.49,0,0,0,2-.12,6.21,6.21,0,0,0,1.17-.21V173.24H76.9v15.13c-.56.14-1.33.3-2.3.48A19.52,19.52,0,0,1,71.1,189.12Z" transform="translate(3.49 3.74)"/>
        <path id="x" class="cls-5" d="M80.44,188.79a36.13,36.13,0,0,1,2.78-4.19q1.61-2.11,3.16-4l-5.64-7.32H83.5l4.41,5.61L92,173.24h2.61l-5.2,7.11q1.5,2,3.05,4.1a38,38,0,0,1,2.75,4.34H92.45a16.76,16.76,0,0,0-1.14-2c-.51-.77-1.06-1.57-1.66-2.4s-1.19-1.59-1.77-2.3c-.58.69-1.19,1.45-1.84,2.29s-1.26,1.65-1.82,2.43a21.2,21.2,0,0,0-1.29,2Z" transform="translate(3.49 3.74)"/>
        <path id="M-4" data-name="M" class="cls-5" d="M114.18,188.79q.21-5.16.58-10.52t1-10.28h2.31q.9,2.91,1.71,5.44c.54,1.7,1.09,3.44,1.65,5.24.54-1.76,1.08-3.49,1.61-5.21l1.69-5.47h2.35a98.81,98.81,0,0,1,1,9.92q.27,5.24.54,10.88h-2.34c-.06-1.56-.12-3.34-.17-5.33s-.1-4.06-.16-6.2-.14-4.21-.24-6.21l-3.16,9.69h-2.22l-3.3-9.69q0,3-.15,6.18t-.23,6.22c-.07,2-.12,3.78-.16,5.34Z" transform="translate(3.49 3.74)"/>
        <path id="o" class="cls-5" d="M138.16,189.12a6.31,6.31,0,0,1-3.52-1,6.9,6.9,0,0,1-2.45-2.82,10.71,10.71,0,0,1,0-8.55,7,7,0,0,1,2.45-2.84,6.32,6.32,0,0,1,3.54-1,6.52,6.52,0,0,1,3.62,1,7,7,0,0,1,2.48,2.84,10.6,10.6,0,0,1,0,8.55,6.9,6.9,0,0,1-2.48,2.82A6.59,6.59,0,0,1,138.16,189.12Zm0-2.16a4,4,0,0,0,3.29-1.58,8.3,8.3,0,0,0,0-8.76,4,4,0,0,0-3.3-1.61,3.86,3.86,0,0,0-3.21,1.61,7,7,0,0,0-1.23,4.39,6.83,6.83,0,0,0,1.26,4.37A3.94,3.94,0,0,0,138.19,187Z" transform="translate(3.49 3.74)"/>
        <path id="r" class="cls-5" d="M150.41,188.79V174a26.12,26.12,0,0,1,3.44-.84,19.46,19.46,0,0,1,3.34-.3c.78,0,1.44,0,2,.07a19,19,0,0,1,2,.32l-.42,2a9.19,9.19,0,0,0-1.87-.37c-.48,0-1.06,0-1.74,0a15.57,15.57,0,0,0-4.38.63v13.3Z" transform="translate(3.49 3.74)"/>
        <path id="e" class="cls-5" d="M172.8,189.15a8.37,8.37,0,0,1-4.49-1.1,6.61,6.61,0,0,1-2.59-3,9.81,9.81,0,0,1-.84-4.09,9.42,9.42,0,0,1,.63-3.6,7.13,7.13,0,0,1,4.05-4,7.31,7.31,0,0,1,2.64-.49,6,6,0,0,1,4.74,1.94q1.73,1.94,1.72,6v.81H167.22q.51,5.41,5.94,5.41a11.37,11.37,0,0,0,2.55-.24,8.29,8.29,0,0,0,1.47-.45l.33,2a5.27,5.27,0,0,1-1.69.57A13.85,13.85,0,0,1,172.8,189.15Zm-5.49-9.64h8.85a4.77,4.77,0,0,0-1.14-3.4,3.78,3.78,0,0,0-2.88-1.22,4.25,4.25,0,0,0-2.38.68,5.15,5.15,0,0,0-1.67,1.74A5.76,5.76,0,0,0,167.31,179.51Z" transform="translate(3.49 3.74)"/>
    </g>
    <text class="cls-6" transform="translate(195.52 40.64)">MLinux More v0.1.0<tspan x="0" y="24">Linux @LINUX_VERSIONS@ @ARCHITECTURE@</tspan>
        <tspan x="0" y="48">@YEAR@-@MONTH@-@DAY@ @HOUR@:@MINUTE@:@SECOND@ @TIMEZONE@</tspan>
    </text>
    <text class="cls-7" transform="translate(643.49 503.74)"></text>
</svg>
