<svg id="Calque_1" data-name="Calque 1"
    xmlns="http://www.w3.org/2000/svg"
    xmlns:xlink="http://www.w3.org/1999/xlink" viewBox="0 0 364.08 417.33">
    <defs>
        <style>.cls-1,.cls-3{fill:none;}.cls-2{clip-path:url(#clip-path);}.cls-3{stroke:#2ea7e0;stroke-miterlimit:10;stroke-width:20px;}.cls-4{font-size:172px;fill:#036eb8;font-family:UbuntuSansMono-Regular, Ubuntu Sans Mono;}.cls-5{fill:#fff;}</style>
        <clipPath id="clip-path" transform="translate(-100.62 -23.43)">
            <polygon id="circle-path" class="cls-1" points="100.63 20.92 100.63 363.36 373.32 360.1 328.04 280.3 393.84 215.24 495.33 256.87 495.33 20.92 100.63 20.92"/>
        </clipPath>
    </defs>
    <g id="circle">
        <g class="cls-2">
            <path id="full-circle" class="cls-3" d="M430.67,181.82A148.39,148.39,0,1,1,282.28,33.43,147.86,147.86,0,0,1,430.67,181.82Z" transform="translate(-100.62 -23.43)"/>
        </g>
    </g>
    <text class="cls-4" transform="translate(115.31 216.23) scale(1.47 1)">M</text>
    <path class="cls-5" d="M100.62,440q.42-10.32,1.17-21t2.07-20.55h4.62q1.8,5.82,3.42,10.89t3.3,10.47q1.62-5.28,3.21-10.41l3.39-11h4.68a197.42,197.42,0,0,1,2,19.83q.54,10.47,1.08,21.75h-4.68q-.18-4.68-.33-10.65T124.2,417q-.18-6.42-.48-12.42L117.42,424H113l-6.6-19.38q-.06,5.94-.3,12.36t-.45,12.42q-.21,6-.33,10.68Z" transform="translate(-100.62 -23.43)"/>
    <path class="cls-5" d="M138.42,440V398.46h4.68V436h19.68v4Z" transform="translate(-100.62 -23.43)"/>
    <path class="cls-5" d="M188.4,440.76a10.94,10.94,0,0,1-6-1.38,7.22,7.22,0,0,1-3-4.11,24,24,0,0,1-.84-6.93V413h-9.18v-4h13.74V428a16.91,16.91,0,0,0,.63,5.25,4.2,4.2,0,0,0,1.86,2.49,6.07,6.07,0,0,0,2.91.66,12.25,12.25,0,0,0,3.81-.54,15.42,15.42,0,0,0,2.31-.9l.66,4.08a6,6,0,0,1-1.11.54,15.92,15.92,0,0,1-2.52.78A14.53,14.53,0,0,1,188.4,440.76Zm-8.82-37.5a4,4,0,0,1-2.88-1.17,4.62,4.62,0,0,1,0-6.21,4,4,0,0,1,2.88-1.14,3.9,3.9,0,0,1,2.88,1.14,4.8,4.8,0,0,1,0,6.21A3.85,3.85,0,0,1,179.58,403.26Z" transform="translate(-100.62 -23.43)"/>
    <path class="cls-5" d="M204.06,440V409.8a42.61,42.61,0,0,1,6.12-1.17,47,47,0,0,1,5.16-.33,16,16,0,0,1,6.72,1.29,9.12,9.12,0,0,1,4.35,4.2,16.92,16.92,0,0,1,1.53,7.83V440h-4.68V422.58a14.83,14.83,0,0,0-1.08-6.45,5.59,5.59,0,0,0-2.91-2.85,11.15,11.15,0,0,0-4.11-.72,32.7,32.7,0,0,0-6.42.66V440Z" transform="translate(-100.62 -23.43)"/>
    <path class="cls-5" d="M249.72,440.7a12.8,12.8,0,0,1-7.2-1.8,10.09,10.09,0,0,1-3.9-5,20.9,20.9,0,0,1-1.2-7.35V409h4.68v16.26q0,6.18,1.92,8.7t6.24,2.52a32.41,32.41,0,0,0,4-.24,12.41,12.41,0,0,0,2.34-.42V409h4.68V439.2q-1.68.42-4.59,1A38.93,38.93,0,0,1,249.72,440.7Z" transform="translate(-100.62 -23.43)"/>
    <path class="cls-5" d="M268.38,440a74.7,74.7,0,0,1,5.55-8.37q3.21-4.23,6.33-8.07L269,409h5.52l8.82,11.22,8.1-11.22h5.22l-10.38,14.22q3,4,6.09,8.19a75.81,75.81,0,0,1,5.49,8.67h-5.46a33.5,33.5,0,0,0-2.28-4q-1.5-2.31-3.3-4.8t-3.54-4.59q-1.74,2-3.69,4.56t-3.63,4.86a42.4,42.4,0,0,0-2.58,4Z" transform="translate(-100.62 -23.43)"/>
    <path class="cls-5" d="M335.82,440q.42-10.32,1.17-21t2.07-20.55h4.62q1.8,5.82,3.42,10.89t3.3,10.47q1.62-5.28,3.21-10.41l3.39-11h4.68a197.42,197.42,0,0,1,2,19.83q.54,10.47,1.08,21.75h-4.68q-.18-4.68-.33-10.65T359.4,417q-.18-6.42-.48-12.42L352.62,424h-4.44l-6.6-19.38q-.06,5.94-.3,12.36t-.45,12.42q-.21,6-.33,10.68Z" transform="translate(-100.62 -23.43)"/>
    <path class="cls-5" d="M383.76,440.7a12.64,12.64,0,0,1-7.05-2,13.93,13.93,0,0,1-4.89-5.64,19,19,0,0,1-1.8-8.55,19.31,19.31,0,0,1,1.77-8.55,13.85,13.85,0,0,1,4.89-5.67,12.65,12.65,0,0,1,7.08-2,13,13,0,0,1,7.23,2,14,14,0,0,1,4.95,5.67,21.21,21.21,0,0,1,0,17.1,13.77,13.77,0,0,1-4.95,5.64A13.15,13.15,0,0,1,383.76,440.7Zm.06-4.32a8,8,0,0,0,6.57-3.15q2.49-3.15,2.49-8.73t-2.52-8.79a8,8,0,0,0-6.6-3.21,7.72,7.72,0,0,0-6.42,3.21q-2.46,3.21-2.46,8.79t2.52,8.73A7.87,7.87,0,0,0,383.82,436.38Z" transform="translate(-100.62 -23.43)"/>
    <path class="cls-5" d="M408.24,440V410.52a52.89,52.89,0,0,1,6.87-1.68,39,39,0,0,1,6.69-.6q2.34,0,4,.15a37.47,37.47,0,0,1,4,.63l-.84,4a18.11,18.11,0,0,0-3.72-.75q-1.44-.09-3.48-.09a31.13,31.13,0,0,0-8.76,1.26V440Z" transform="translate(-100.62 -23.43)"/>
    <path class="cls-5" d="M453,440.76a16.69,16.69,0,0,1-9-2.19,13.27,13.27,0,0,1-5.19-5.91,19.6,19.6,0,0,1-1.68-8.16,18.83,18.83,0,0,1,1.26-7.2,14.2,14.2,0,0,1,8.1-8.07,14.62,14.62,0,0,1,5.28-1q6.06,0,9.48,3.87T464.7,424v1.62H441.84q1,10.8,11.88,10.8a22.75,22.75,0,0,0,5.1-.48,16.59,16.59,0,0,0,2.94-.9l.66,4a10.64,10.64,0,0,1-3.39,1.14A27.6,27.6,0,0,1,453,440.76ZM442,421.5h17.7a9.57,9.57,0,0,0-2.28-6.81,7.56,7.56,0,0,0-5.76-2.43,8.54,8.54,0,0,0-4.77,1.35,10.46,10.46,0,0,0-3.33,3.48A11.57,11.57,0,0,0,442,421.5Z" transform="translate(-100.62 -23.43)"/>
</svg>
